<?xml version="1.0" encoding="utf-8"?>
<!-- Generator: Adobe Illustrator 16.2.1, SVG Export Plug-In . SVG Version: 6.00 Build 0)  -->
<!DOCTYPE svg PUBLIC "-//W3C//DTD SVG 1.1//EN" "http://www.w3.org/Graphics/SVG/1.1/DTD/svg11.dtd">
<svg version="1.1" xmlns="http://www.w3.org/2000/svg" xmlns:xlink="http://www.w3.org/1999/xlink" x="0px" y="0px" width="1080px"
	 height="1920px" viewBox="0 0 1080 1920" enable-background="new 0 0 1080 1920" xml:space="preserve">
<g id="Layer_2_1_" display="none">
	<rect display="inline" stroke="#414042" stroke-width="5" stroke-miterlimit="10" width="1080" height="1920"/>
</g>
<g id="Layer_1">
	<g id="Layer_3" display="none">
		<rect display="inline" width="1080" height="1920"/>
	</g>
	<polygon fill="#FFFFFF" points="189.466,945.864 126.478,945.864 126.478,882.864 83.458,882.864 83.458,945.864 20.466,945.864 
		20.466,988.88 83.458,988.88 83.458,1051.864 126.478,1051.864 126.478,988.88 189.466,988.88 	"/>
	<polygon fill="#FFFFFF" points="583.798,922.797 553.365,892.364 508.793,936.938 464.23,892.374 433.798,922.807 478.359,967.371 
		433.799,1011.932 464.231,1042.364 508.793,997.804 553.354,1042.364 583.786,1011.932 539.226,967.371 	"/>
	<path fill="#FFFFFF" d="M723.793,894.003c-40.454,0-73.366,32.91-73.366,73.361c0,1.614,0.06,3.233,0.167,4.852l-11.021-9.005
		l-11.425,13.985l35.428,28.944l38.407-26.571l-10.273-14.852l-12.595,8.714c-0.274-2.016-0.423-4.047-0.423-6.067
		c0-24.866,20.23-45.098,45.101-45.098c24.863,0,45.091,20.23,45.091,45.098c0,24.866-20.228,45.097-45.091,45.097
		c-4.642,0-9.248-0.714-13.689-2.122l-13.472-4.269l-8.539,26.942l13.474,4.271c7.206,2.284,14.686,3.44,22.228,3.44
		c40.448,0,73.355-32.909,73.355-73.36C797.148,926.913,764.241,894.003,723.793,894.003z"/>
	<path fill="#FFFFFF" d="M389.188,905.832c-1.018-5.625-4.701-10.989-10.092-14.724l-27.271-18.977
		c-9.406-6.569-22.168-5.684-27.414,1.901l-9.784,14.049c-0.945,1.372-1.324,3.049-1.016,4.68c0,0.072,0.047,0.144,0.07,0.214
		l-5.08,7.326c-0.166,0.212-0.166,0.472-0.308,0.708l-69.526,99.918l0.591,0.379c-1.371,1.087-2.222,2.693-2.34,4.478l-3.19,54.603
		c-0.094,1.632,0.475,3.214,1.488,4.42l-0.07,0.853l0.662-0.308c0.188,0.188,0.378,0.379,0.591,0.543
		c1.087,0.743,2.314,1.109,3.593,1.109c0.85,0,1.7-0.165,2.504-0.519l50.1-21.979c1.607-0.708,2.838-2.079,3.381-3.732l0.993,0.697
		l68.816-98.937c0.473-0.439,0.922-0.924,1.324-1.466l4.799-6.901c0.328,0,0.66-0.023,1.014-0.094
		c1.633-0.284,3.074-1.219,4.018-2.576l9.762-14.027C389.092,914.198,389.92,910.074,389.188,905.832z M257.484,1046.303
		l-5.908-4.111l-3.971-2.767l1.275-21.766l28.548,19.875L257.484,1046.303z M376.543,910.298l-5.531,7.978
		c-0.873-0.297-1.723-0.413-2.598-0.413l-38.449-26.729c-0.238-0.66-0.473-1.299-0.875-1.89l5.602-8.083
		c1.205-1.726,6.309-1.323,9.973,1.229l27.295,18.999c3.096,2.15,4.561,4.846,4.893,6.665
		C376.969,908.716,377.016,909.626,376.543,910.298z"/>
	<g>
		<rect x="21" y="32.041" fill="#FFFFFF" width="58" height="7.053"/>
		<rect x="21" y="66.988" fill="#FFFFFF" width="58" height="7.053"/>
		<rect x="21" y="49.515" fill="#FFFFFF" width="58" height="7.052"/>
	</g>
	<g>
		<g>
			<rect x="841.5" y="951.101" fill="#FFFFFF" width="32.526" height="32.526"/>
			<rect x="897.39" y="951.101" fill="#FFFFFF" width="113.11" height="32.526"/>
		</g>
		<g>
			<rect x="841.5" y="894.546" fill="#FFFFFF" width="32.526" height="32.525"/>
			<rect x="897.39" y="894.546" fill="#FFFFFF" width="113.11" height="32.525"/>
		</g>
		<g>
			<rect x="841.5" y="1007.656" fill="#FFFFFF" width="32.526" height="32.524"/>
			<rect x="897.39" y="1007.656" fill="#FFFFFF" width="113.11" height="32.524"/>
		</g>
	</g>
	<g>
		
			<line fill="none" stroke="#FFFFFF" stroke-width="5.8747" stroke-linecap="round" stroke-miterlimit="10" x1="106.729" y1="51.503" x2="132.953" y2="29.749"/>
		
			<line fill="none" stroke="#FFFFFF" stroke-width="5.8747" stroke-linecap="round" stroke-miterlimit="10" x1="159.176" y1="51.503" x2="133.2" y2="29.954"/>
		<path fill="#FFFFFF" d="M133.025,39.154l-22.312,18.661v15.357c0,4.907,4.829,8.886,10.789,8.886h23.049
			c5.959,0,10.789-3.979,10.789-8.886V57.815L133.025,39.154z M140.645,78.874h-15.237V64.683c0-4.208,3.412-7.619,7.618-7.619
			c4.207,0,7.619,3.412,7.619,7.619V78.874z"/>
	</g>
	<g enable-background="new    ">
		<path fill="#FCF8CD" d="M78.93,180.546c0,2.131-0.221,4.177-0.663,6.137c-0.442,1.961-1.077,3.803-1.904,5.525
			c-0.828,1.723-1.848,3.321-3.06,4.794c-1.213,1.474-2.59,2.777-4.131,3.91l12.546,13.702h-9.452c-1.36,0-2.596-0.165-3.706-0.493
			c-1.111-0.329-2.097-0.992-2.958-1.989l-6.154-6.901c-0.998,0.203-2.012,0.362-3.043,0.476s-2.091,0.17-3.179,0.17
			c-3.854,0-7.367-0.646-10.54-1.938c-3.174-1.292-5.888-3.077-8.143-5.355c-2.256-2.278-4.001-4.958-5.236-8.041
			c-1.236-3.082-1.853-6.414-1.853-9.996c0-3.581,0.617-6.913,1.853-9.996c1.235-3.082,2.98-5.757,5.236-8.023
			c2.255-2.267,4.969-4.046,8.143-5.338c3.173-1.292,6.687-1.938,10.54-1.938c3.853,0,7.361,0.652,10.523,1.955
			c3.162,1.304,5.865,3.089,8.109,5.354c2.244,2.268,3.983,4.942,5.219,8.024C78.312,173.667,78.93,176.987,78.93,180.546z
			 M67.166,180.546c0-2.448-0.318-4.652-0.952-6.613c-0.635-1.96-1.547-3.62-2.737-4.98s-2.647-2.402-4.369-3.128
			c-1.723-0.726-3.684-1.088-5.882-1.088c-2.222,0-4.199,0.362-5.933,1.088s-3.196,1.768-4.386,3.128
			c-1.19,1.36-2.103,3.021-2.737,4.98c-0.635,1.961-0.952,4.165-0.952,6.613c0,2.471,0.317,4.687,0.952,6.647
			c0.634,1.961,1.547,3.621,2.737,4.98c1.19,1.36,2.652,2.397,4.386,3.111s3.711,1.071,5.933,1.071c2.198,0,4.159-0.357,5.882-1.071
			c1.722-0.714,3.179-1.751,4.369-3.111c1.19-1.359,2.102-3.02,2.737-4.98C66.848,185.232,67.166,183.017,67.166,180.546z"/>
		<path fill="#FCF8CD" d="M105.042,196.254c1.541,0,2.918-0.255,4.131-0.765c1.212-0.51,2.238-1.241,3.077-2.193
			c0.838-0.952,1.479-2.113,1.921-3.485c0.442-1.371,0.663-2.929,0.663-4.675v-29.342h11.492v29.342
			c0,3.038-0.493,5.826-1.479,8.364c-0.986,2.539-2.397,4.726-4.233,6.562c-1.836,1.836-4.069,3.264-6.698,4.283
			c-2.63,1.021-5.588,1.53-8.874,1.53c-3.31,0-6.279-0.51-8.908-1.53c-2.629-1.02-4.862-2.447-6.698-4.283
			c-1.836-1.837-3.242-4.023-4.216-6.562c-0.975-2.538-1.462-5.326-1.462-8.364v-29.342H95.25v29.308
			c0,1.746,0.221,3.305,0.663,4.676c0.442,1.371,1.082,2.538,1.921,3.502c0.838,0.964,1.864,1.7,3.077,2.21
			C102.123,195.999,103.5,196.254,105.042,196.254z"/>
		<path fill="#FCF8CD" d="M146.385,205.332h-11.561v-49.538h11.561V205.332z"/>
		<path fill="#FCF8CD" d="M162.874,155.862c0.341,0.046,0.646,0.131,0.918,0.255c0.272,0.125,0.532,0.301,0.782,0.526
			c0.249,0.228,0.532,0.533,0.851,0.919l23.527,29.75c-0.091-0.952-0.158-1.876-0.204-2.771c-0.045-0.896-0.067-1.739-0.067-2.533
			v-26.214h10.132v49.538h-5.984c-0.884,0-1.632-0.136-2.244-0.408c-0.611-0.271-1.201-0.771-1.768-1.496l-23.358-29.512
			c0.068,0.861,0.125,1.706,0.17,2.533c0.046,0.827,0.068,1.604,0.068,2.329v26.554h-10.132v-49.538h6.052
			C162.114,155.794,162.534,155.816,162.874,155.862z"/>
		<path fill="#FCF8CD" d="M219.553,205.332h-11.561v-49.538h11.561V205.332z"/>
		<path fill="#FCF8CD" d="M260.623,155.794v8.84h-20.332v11.561h15.572v8.5h-15.572v11.798h20.332v8.84h-31.892v-49.538H260.623z"/>
		<path fill="#FCF8CD" d="M278.644,196.152h18.359v9.18h-29.852v-49.538h11.492V196.152z"/>
		<path fill="#FCF8CD" d="M348.546,205.332h-8.907c-0.998,0-1.819-0.232-2.466-0.697c-0.646-0.464-1.094-1.059-1.343-1.785
			l-2.924-8.636H314.07l-2.924,8.636c-0.227,0.636-0.669,1.207-1.326,1.718c-0.657,0.51-1.462,0.765-2.414,0.765h-8.976
			l19.176-49.538h11.764L348.546,205.332z M316.723,186.394h13.531l-4.556-13.565c-0.295-0.861-0.641-1.875-1.037-3.043
			c-0.396-1.167-0.788-2.431-1.173-3.791c-0.363,1.383-0.737,2.664-1.122,3.842c-0.386,1.179-0.748,2.199-1.088,3.061
			L316.723,186.394z"/>
	</g>
	<g>
		<path fill="#002E3A" d="M511.476,385.408c0,11.046-8.953,20-20,20H41c-11.046,0-20-8.954-20-20V273.916c0-11.046,8.954-20,20-20
			h450.476c11.047,0,20,8.954,20,20V385.408z"/>
		<g enable-background="new    ">
			<path fill="#FCF8CD" d="M120.122,327.682c0,2.875-0.298,5.636-0.895,8.281c-0.596,2.646-1.453,5.131-2.569,7.455
				c-1.117,2.324-2.493,4.48-4.129,6.469s-3.495,3.747-5.574,5.276l16.929,18.488h-12.754c-1.835,0-3.503-0.222-5.001-0.665
				c-1.499-0.443-2.83-1.338-3.991-2.684l-8.304-9.313c-1.346,0.275-2.715,0.489-4.106,0.643c-1.393,0.152-2.822,0.229-4.29,0.229
				c-5.2,0-9.94-0.872-14.222-2.615c-4.283-1.743-7.945-4.152-10.988-7.226c-3.044-3.074-5.399-6.69-7.065-10.851
				c-1.667-4.159-2.5-8.655-2.5-13.488c0-4.832,0.833-9.328,2.5-13.488c1.667-4.159,4.021-7.769,7.065-10.828
				c3.043-3.058,6.705-5.459,10.988-7.203c4.282-1.744,9.022-2.615,14.222-2.615s9.933,0.879,14.2,2.638s7.914,4.167,10.942,7.226
				c3.028,3.059,5.375,6.668,7.042,10.828C119.288,318.399,120.122,322.88,120.122,327.682z M104.248,327.682
				c0-3.304-0.429-6.277-1.285-8.924c-0.857-2.645-2.087-4.886-3.693-6.721c-1.606-1.835-3.571-3.242-5.896-4.221
				c-2.325-0.979-4.971-1.468-7.937-1.468c-2.998,0-5.666,0.489-8.006,1.468c-2.339,0.979-4.312,2.386-5.918,4.221
				c-1.606,1.835-2.837,4.076-3.693,6.721c-0.856,2.646-1.285,5.62-1.285,8.924c0,3.334,0.428,6.324,1.285,8.969
				c0.856,2.646,2.087,4.887,3.693,6.722c1.605,1.835,3.579,3.234,5.918,4.198c2.34,0.963,5.008,1.444,8.006,1.444
				c2.966,0,5.612-0.481,7.937-1.444c2.324-0.964,4.29-2.363,5.896-4.198s2.836-4.075,3.693-6.722
				C103.819,334.006,104.248,331.016,104.248,327.682z"/>
			<path fill="#FCF8CD" d="M155.355,348.877c2.08,0,3.938-0.344,5.574-1.032c1.635-0.688,3.02-1.674,4.152-2.959
				c1.131-1.284,1.996-2.852,2.592-4.702s0.895-3.953,0.895-6.309v-39.593h15.506v39.593c0,4.099-0.664,7.861-1.994,11.286
				c-1.332,3.426-3.234,6.377-5.713,8.854c-2.477,2.478-5.49,4.404-9.037,5.781c-3.549,1.376-7.541,2.064-11.975,2.064
				c-4.467,0-8.473-0.688-12.021-2.064c-3.548-1.377-6.561-3.304-9.038-5.781s-4.374-5.429-5.689-8.854
				c-1.315-3.425-1.973-7.188-1.973-11.286v-39.593h15.507v39.547c0,2.355,0.298,4.458,0.895,6.309
				c0.597,1.851,1.46,3.426,2.592,4.726c1.131,1.3,2.516,2.294,4.152,2.981C151.416,348.533,153.275,348.877,155.355,348.877z"/>
			<path fill="#FCF8CD" d="M211.144,361.127h-15.599v-66.845h15.599V361.127z"/>
			<path fill="#FCF8CD" d="M233.394,294.374c0.459,0.062,0.872,0.176,1.239,0.344c0.366,0.168,0.718,0.406,1.055,0.711
				c0.336,0.306,0.719,0.719,1.147,1.239l31.748,40.144c-0.123-1.285-0.215-2.53-0.275-3.739c-0.062-1.208-0.092-2.347-0.092-3.418
				v-35.373h13.672v66.845h-8.075c-1.192,0-2.202-0.184-3.027-0.551c-0.826-0.367-1.622-1.039-2.386-2.019l-31.519-39.822
				c0.092,1.162,0.167,2.302,0.229,3.418c0.061,1.116,0.091,2.164,0.091,3.143v35.831H223.53v-66.845h8.166
				C232.368,294.282,232.935,294.312,233.394,294.374z"/>
			<path fill="#FCF8CD" d="M309.873,361.127h-15.599v-66.845h15.599V361.127z"/>
			<path fill="#FCF8CD" d="M365.293,294.282v11.929h-27.435v15.598h21.012v11.47h-21.012v15.92h27.435v11.929H322.26v-66.845
				H365.293z"/>
			<path fill="#FCF8CD" d="M389.608,348.739h24.774v12.388h-40.281v-66.845h15.507V348.739z"/>
			<path fill="#FCF8CD" d="M483.934,361.127h-12.021c-1.346,0-2.454-0.313-3.326-0.94c-0.871-0.627-1.476-1.43-1.812-2.409
				l-3.946-11.652h-25.416l-3.946,11.652c-0.306,0.857-0.902,1.629-1.789,2.317c-0.888,0.688-1.973,1.032-3.257,1.032h-12.112
				l25.875-66.845h15.874L483.934,361.127z M440.991,335.572h18.26l-6.147-18.306c-0.398-1.161-0.865-2.53-1.399-4.105
				c-0.536-1.575-1.063-3.281-1.583-5.116c-0.489,1.866-0.994,3.594-1.514,5.184c-0.521,1.591-1.01,2.968-1.469,4.129
				L440.991,335.572z"/>
		</g>
	</g>
	<text transform="matrix(1 0 0 1 1635.0752 509.0244)" fill="#FFFFFF" font-family="'Lato-Bold'" font-size="49">Anular jugada</text>
	<text transform="matrix(1 0 0 1 1671.2695 140.876)" fill="#FFFFFF" font-family="'Lato-Bold'" font-size="60">4351</text>
	<text transform="matrix(1 0 0 1 1635.0732 329.9434)" fill="#FFFFFF" font-family="'Lato-Bold'" font-size="49">Editar jugada</text>
	<text transform="matrix(1 0 0 1 1514.3887 692.9287)" fill="#6D6E71" font-family="'Lato-Regular'" font-size="43">Jugada sincronizada</text>
	<g>
		<text transform="matrix(1 0 0 1 1587.8516 735.6479)" fill="#6D6E71" font-family="'Lato-Regular'" font-size="30">20/03/2015 10:23hs</text>
	</g>
	<path fill="#FFFFFF" stroke="#353535" stroke-width="1.0199" stroke-miterlimit="10" d="M241.724,73.468
		c0,2.816-2.282,5.099-5.1,5.099h-33.802c-2.814,0-5.1-2.283-5.1-5.099V39.666c0-2.816,2.284-5.099,5.1-5.099h33.802
		c2.816,0,5.1,2.283,5.1,5.099V73.468z"/>
	<path fill="#FFFFFF" stroke="#353535" stroke-width="1.0199" stroke-miterlimit="10" d="M313.354,73.468
		c0,2.816-2.283,5.099-5.1,5.099h-33.803c-2.814,0-5.099-2.283-5.099-5.099V39.666c0-2.816,2.283-5.099,5.099-5.099h33.803
		c2.815,0,5.1,2.283,5.1,5.099V73.468z"/>
	<path fill="#00A651" d="M322.26,37.335c-1.65-1.605-4.3-1.567-5.902,0.088l-24.526,25.261l-5.243-8.31
		c-1.229-1.948-3.812-2.53-5.761-1.301c-1.946,1.231-2.526,3.808-1.298,5.755l8.075,12.796c0.686,1.08,1.824,1.788,3.097,1.921
		c0.144,0.014,0.288,0.021,0.43,0.021c1.127,0,2.21-0.451,2.997-1.266l28.218-29.066C323.948,41.583,323.91,38.941,322.26,37.335z"
		/>
	<g id="Layer_2" display="none">
		<g display="inline">
			<g>
				<line fill="none" stroke="#FFFFFF" stroke-width="5" stroke-miterlimit="10" x1="148.041" y1="673" x2="224.69" y2="673"/>
				<g>
					<polygon fill="#FFFFFF" points="220.618,642.629 220.618,703.371 250.982,673 					"/>
				</g>
			</g>
		</g>
		<g display="inline">
			<g>
				<line fill="none" stroke="#FFFFFF" stroke-width="5" stroke-miterlimit="10" x1="123.726" y1="673" x2="47.076" y2="673"/>
				<g>
					<polygon fill="#FFFFFF" points="51.148,703.371 51.148,642.629 20.785,673 					"/>
				</g>
			</g>
		</g>
		<g display="inline">
			<g>
				
					<line fill="none" stroke="#FFFFFF" stroke-width="5" stroke-miterlimit="10" x1="135.883" y1="660.843" x2="135.883" y2="584.193"/>
				<g>
					<polygon fill="#FFFFFF" points="105.512,588.265 166.254,588.265 135.883,557.901 					"/>
				</g>
			</g>
		</g>
		<g display="inline">
			<g>
				
					<line fill="none" stroke="#FFFFFF" stroke-width="5" stroke-miterlimit="10" x1="135.883" y1="688.157" x2="135.883" y2="764.807"/>
				<g>
					<polygon fill="#FFFFFF" points="166.254,760.735 105.512,760.735 135.883,791.099 					"/>
				</g>
			</g>
		</g>
	</g>
	<g>
		<path fill="#033D5C" d="M632.423,82.941c1.089,0,2.176-0.39,3.036-1.162l17.744-15.917l-6.07-6.767l-9.608,8.619V32.922h-12.105
			V67.05l-10.002-7.921l-5.645,7.126l19.829,15.704C630.431,82.615,631.428,82.941,632.423,82.941z"/>
		<path fill="#033D5C" d="M667.494,71.587v46.868h-72.047V72.573h-13.373v52.569c0,3.693,2.994,6.686,6.687,6.686h85.42
			c3.692,0,6.687-2.993,6.687-6.686V71.587H667.494z"/>
	</g>
	<text transform="matrix(1 0 0 1 -675.9844 1302.3711)" fill="#FFFFFF" font-family="'Lato-Bold'" font-size="41.629">Guardar</text>
	<polygon fill="#033D5C" points="794.396,65.514 784.939,56.058 755.77,85.228 726.604,56.062 717.147,65.518 746.313,94.684 
		717.147,123.85 726.604,133.305 755.77,104.139 784.934,133.303 794.39,123.848 765.226,94.684 	"/>
	<text transform="matrix(1 0 0 1 -1073.6118 983.627)" fill="#FFFFFF" font-family="'Lato-Bold'" font-size="41.629">Cancelar</text>
	<g>
		<circle fill="#404041" cx="357.097" cy="41.38" r="4.813"/>
		<circle fill="#404041" cx="357.097" cy="56.567" r="4.813"/>
		<circle fill="#404041" cx="357.097" cy="71.753" r="4.813"/>
	</g>
	<g>
		<rect x="748.943" y="190.578" fill="#00AEEF" width="138.004" height="138.004"/>
		<g>
			
				<line fill="none" stroke="#FFFFFF" stroke-width="17.0433" stroke-miterlimit="10" x1="841.611" y1="238.403" x2="794.264" y2="285.751"/>
			
				<line fill="none" stroke="#FFFFFF" stroke-width="17.0433" stroke-miterlimit="10" x1="794.264" y1="238.407" x2="841.607" y2="285.75"/>
		</g>
	</g>
	<g>
		<rect x="582.074" y="190.578" fill="#00AEEF" width="138.002" height="138.003"/>
		<path fill="#FFFFFF" d="M682.717,236.703c-0.404-2.237-1.871-4.371-4.015-5.855l-10.846-7.546
			c-3.74-2.613-8.816-2.26-10.902,0.756l-3.891,5.587c-0.375,0.545-0.525,1.212-0.402,1.861c0,0.028,0.019,0.056,0.027,0.085
			l-2.02,2.913c-0.066,0.084-0.066,0.188-0.123,0.282l-27.648,39.734l0.234,0.15c-0.545,0.434-0.883,1.071-0.931,1.781l-1.27,21.713
			c-0.037,0.649,0.188,1.278,0.592,1.759l-0.026,0.339l0.264-0.123c0.074,0.076,0.147,0.15,0.234,0.216
			c0.432,0.296,0.92,0.442,1.428,0.442c0.338,0,0.678-0.066,0.996-0.207l19.924-8.741c0.639-0.281,1.129-0.827,1.344-1.484
			l0.395,0.278l27.367-39.345c0.188-0.175,0.367-0.367,0.527-0.583l1.908-2.745c0.131,0,0.262-0.009,0.401-0.038
			c0.648-0.113,1.224-0.484,1.599-1.024l3.883-5.579C682.678,240.03,683.008,238.39,682.717,236.703z M630.342,292.565l-2.351-1.635
			l-1.58-1.101l0.509-8.655l11.352,7.903L630.342,292.565z M677.688,238.479l-2.199,3.172c-0.348-0.118-0.686-0.164-1.032-0.164
			l-15.291-10.629c-0.095-0.263-0.188-0.517-0.349-0.752l2.229-3.214c0.479-0.686,2.508-0.526,3.965,0.489l10.854,7.556
			c1.23,0.855,1.812,1.927,1.945,2.65C677.857,237.851,677.874,238.212,677.688,238.479z"/>
	</g>
	<g>
		<rect x="915.813" y="190.578" fill="#00AEEF" width="138.004" height="138.004"/>
		<path fill="#FFFFFF" d="M989.932,225.902c-18.57,0-33.679,15.107-33.679,33.677c0,0.741,0.027,1.484,0.076,2.227l-5.059-4.133
			l-5.245,6.42l16.263,13.287l17.631-12.198l-4.715-6.818l-5.782,4c-0.126-0.925-0.194-1.857-0.194-2.785
			c0-11.415,9.287-20.703,20.704-20.703c11.413,0,20.699,9.287,20.699,20.703c0,11.415-9.286,20.702-20.699,20.702
			c-2.131,0-4.245-0.328-6.284-0.974l-6.185-1.959l-3.92,12.368l6.186,1.961c3.308,1.048,6.741,1.58,10.203,1.58
			c18.569,0,33.675-15.107,33.675-33.677C1023.606,241.01,1008.5,225.902,989.932,225.902z"/>
	</g>
	<g>
		<rect x="226.496" y="432.065" fill="#00AEEF" width="166.847" height="166.847"/>
		<g>
			
				<line fill="none" stroke="#FFFFFF" stroke-width="20.6053" stroke-miterlimit="10" x1="338.532" y1="489.886" x2="281.288" y2="547.13"/>
			
				<line fill="none" stroke="#FFFFFF" stroke-width="20.6053" stroke-miterlimit="10" x1="281.288" y1="489.891" x2="338.527" y2="547.129"/>
		</g>
	</g>
	<g>
		<rect x="24.751" y="432.066" fill="#00AEEF" width="166.844" height="166.845"/>
		<path fill="#FFFFFF" d="M146.428,487.831c-0.489-2.704-2.262-5.284-4.854-7.079l-13.113-9.123
			c-4.522-3.159-10.659-2.732-13.181,0.915l-4.704,6.754c-0.453,0.659-0.635,1.465-0.486,2.25c0,0.034,0.022,0.068,0.033,0.103
			l-2.442,3.522c-0.08,0.102-0.08,0.227-0.148,0.34l-33.427,48.039l0.283,0.182c-0.659,0.524-1.067,1.295-1.125,2.154l-1.535,26.25
			c-0.045,0.785,0.228,1.546,0.715,2.127l-0.032,0.41l0.319-0.149c0.089,0.092,0.178,0.182,0.283,0.261
			c0.522,0.358,1.112,0.535,1.726,0.535c0.409,0,0.819-0.081,1.205-0.25l24.088-10.568c0.772-0.34,1.365-1,1.625-1.795l0.477,0.336
			l33.086-47.568c0.228-0.211,0.444-0.444,0.638-0.705l2.307-3.318c0.158,0,0.317-0.011,0.485-0.045
			c0.784-0.137,1.479-0.586,1.933-1.239l4.694-6.744C146.381,491.854,146.78,489.871,146.428,487.831z M83.107,555.368l-2.842-1.976
			l-1.91-1.331l0.615-10.464l13.724,9.555L83.107,555.368z M140.348,489.979l-2.659,3.835c-0.42-0.143-0.829-0.198-1.248-0.198
			l-18.487-12.851c-0.115-0.318-0.228-0.625-0.421-0.909l2.695-3.885c0.579-0.83,3.032-0.636,4.793,0.591l13.123,9.135
			c1.488,1.034,2.191,2.33,2.352,3.204C140.553,489.218,140.573,489.656,140.348,489.979z"/>
	</g>
	<g>
		<rect x="428.242" y="432.065" fill="#00AEEF" width="166.846" height="166.847"/>
		<path fill="#FFFFFF" d="M517.85,474.773c-22.451,0-40.717,18.265-40.717,40.716c0,0.896,0.033,1.794,0.092,2.692l-6.116-4.997
			l-6.341,7.762l19.662,16.064l21.315-14.747l-5.7-8.243l-6.991,4.836c-0.152-1.118-0.235-2.246-0.235-3.367
			c0-13.801,11.228-25.03,25.031-25.03c13.798,0,25.026,11.229,25.026,25.03c0,13.8-11.228,25.028-25.026,25.028
			c-2.576,0-5.132-0.396-7.597-1.178l-7.477-2.369l-4.739,14.953l7.479,2.371c3.999,1.268,8.15,1.91,12.335,1.91
			c22.451,0,40.712-18.265,40.712-40.715C558.562,493.038,540.3,474.773,517.85,474.773z"/>
	</g>
</g>
</svg>
