<?xml version="1.0" encoding="utf-8"?>
<!-- Generator: Adobe Illustrator 16.2.1, SVG Export Plug-In . SVG Version: 6.00 Build 0)  -->
<!DOCTYPE svg PUBLIC "-//W3C//DTD SVG 1.1//EN" "http://www.w3.org/Graphics/SVG/1.1/DTD/svg11.dtd">
<svg version="1.1" id="Layer_1" xmlns="http://www.w3.org/2000/svg" xmlns:xlink="http://www.w3.org/1999/xlink" x="0px" y="0px"
	 width="1080px" height="1920px" viewBox="0 0 1080 1920" enable-background="new 0 0 1080 1920" xml:space="preserve">
<g id="Layer_2_1_" display="none">
	<rect display="inline" stroke="#414042" stroke-width="5" stroke-miterlimit="10" width="1080" height="1920"/>
</g>
<g id="Layer_3" display="none">
	<rect display="inline" width="1080" height="1920"/>
</g>
<polygon fill="#FFFFFF" points="189.466,945.864 126.478,945.864 126.478,882.864 83.458,882.864 83.458,945.864 20.466,945.864 
	20.466,988.88 83.458,988.88 83.458,1051.864 126.478,1051.864 126.478,988.88 189.466,988.88 "/>
<polygon fill="#FFFFFF" points="583.798,922.797 553.365,892.364 508.793,936.938 464.23,892.374 433.798,922.807 478.359,967.371 
	433.799,1011.932 464.231,1042.364 508.793,997.804 553.354,1042.364 583.786,1011.932 539.226,967.371 "/>
<path fill="#FFFFFF" d="M723.793,894.003c-40.454,0-73.366,32.91-73.366,73.361c0,1.614,0.061,3.232,0.167,4.852l-11.021-9.005
	l-11.425,13.985l35.428,28.943l38.407-26.57l-10.273-14.853l-12.595,8.714c-0.274-2.016-0.423-4.047-0.423-6.066
	c0-24.866,20.229-45.099,45.101-45.099c24.863,0,45.091,20.23,45.091,45.099c0,24.866-20.228,45.097-45.091,45.097
	c-4.642,0-9.248-0.714-13.689-2.122l-13.472-4.269l-8.539,26.941l13.475,4.271c7.206,2.284,14.686,3.439,22.228,3.439
	c40.448,0,73.355-32.909,73.355-73.359C797.148,926.913,764.241,894.003,723.793,894.003z"/>
<path fill="#FFFFFF" d="M389.188,905.832c-1.018-5.625-4.7-10.989-10.092-14.724l-27.271-18.978
	c-9.406-6.568-22.168-5.684-27.414,1.901l-9.784,14.049c-0.945,1.372-1.324,3.049-1.016,4.68c0,0.072,0.047,0.145,0.069,0.214
	l-5.08,7.326c-0.166,0.212-0.166,0.473-0.308,0.708l-69.526,99.918l0.591,0.379c-1.371,1.087-2.222,2.693-2.34,4.479l-3.19,54.603
	c-0.094,1.633,0.475,3.215,1.488,4.42l-0.07,0.854l0.662-0.308c0.188,0.188,0.378,0.379,0.591,0.543
	c1.087,0.743,2.314,1.108,3.593,1.108c0.85,0,1.7-0.165,2.504-0.519l50.1-21.979c1.607-0.708,2.838-2.079,3.381-3.731l0.993,0.696
	l68.816-98.937c0.474-0.439,0.922-0.924,1.324-1.466l4.799-6.901c0.328,0,0.66-0.022,1.015-0.094
	c1.633-0.284,3.073-1.219,4.018-2.576l9.762-14.027C389.092,914.198,389.92,910.074,389.188,905.832z M257.484,1046.303l-5.908-4.11
	l-3.971-2.768l1.275-21.766l28.548,19.875L257.484,1046.303z M376.543,910.298l-5.531,7.979c-0.873-0.298-1.723-0.413-2.598-0.413
	l-38.449-26.729c-0.238-0.66-0.473-1.299-0.875-1.89l5.603-8.083c1.204-1.727,6.309-1.323,9.973,1.229l27.295,18.999
	c3.096,2.15,4.562,4.847,4.893,6.665C376.969,908.716,377.016,909.626,376.543,910.298z"/>
<g>
	<rect x="21" y="32.041" fill="#FFFFFF" width="58" height="7.053"/>
	<rect x="21" y="66.988" fill="#FFFFFF" width="58" height="7.053"/>
	<rect x="21" y="49.515" fill="#FFFFFF" width="58" height="7.052"/>
</g>
<g>
	<g>
		<rect x="841.5" y="951.101" fill="#FFFFFF" width="32.526" height="32.526"/>
		<rect x="897.39" y="951.101" fill="#FFFFFF" width="113.11" height="32.526"/>
	</g>
	<g>
		<rect x="841.5" y="894.546" fill="#FFFFFF" width="32.526" height="32.525"/>
		<rect x="897.39" y="894.546" fill="#FFFFFF" width="113.11" height="32.525"/>
	</g>
	<g>
		<rect x="841.5" y="1007.656" fill="#FFFFFF" width="32.526" height="32.523"/>
		<rect x="897.39" y="1007.656" fill="#FFFFFF" width="113.11" height="32.523"/>
	</g>
</g>
<g>
	
		<line fill="none" stroke="#FFFFFF" stroke-width="5.8747" stroke-linecap="round" stroke-miterlimit="10" x1="106.729" y1="51.503" x2="132.953" y2="29.749"/>
	
		<line fill="none" stroke="#FFFFFF" stroke-width="5.8747" stroke-linecap="round" stroke-miterlimit="10" x1="159.176" y1="51.503" x2="133.2" y2="29.954"/>
	<path fill="#FFFFFF" d="M133.025,39.154l-22.312,18.661v15.357c0,4.907,4.829,8.886,10.789,8.886h23.049
		c5.959,0,10.789-3.979,10.789-8.886V57.815L133.025,39.154z M140.645,78.874h-15.237V64.683c0-4.208,3.412-7.619,7.618-7.619
		c4.207,0,7.619,3.412,7.619,7.619V78.874z"/>
</g>
<text transform="matrix(1 0 0 1 1635.0752 509.0244)" fill="#FFFFFF" font-family="'Lato-Bold'" font-size="49">Anular jugada</text>
<text transform="matrix(1 0 0 1 1671.2695 140.876)" fill="#FFFFFF" font-family="'Lato-Bold'" font-size="60">4351</text>
<text transform="matrix(1 0 0 1 1635.0732 329.9434)" fill="#FFFFFF" font-family="'Lato-Bold'" font-size="49">Editar jugada</text>
<text transform="matrix(1 0 0 1 1514.3887 692.9287)" fill="#6D6E71" font-family="'Lato-Regular'" font-size="43">Jugada sincronizada</text>
<g>
	<text transform="matrix(1 0 0 1 1587.8516 735.6479)" fill="#6D6E71" font-family="'Lato-Regular'" font-size="30">20/03/2015 10:23hs</text>
</g>
<g id="Layer_2" display="none">
	<g display="inline">
		<g>
			<line fill="none" stroke="#FFFFFF" stroke-width="5" stroke-miterlimit="10" x1="148.041" y1="673" x2="224.69" y2="673"/>
			<g>
				<polygon fill="#FFFFFF" points="220.618,642.629 220.618,703.371 250.982,673 				"/>
			</g>
		</g>
	</g>
	<g display="inline">
		<g>
			<line fill="none" stroke="#FFFFFF" stroke-width="5" stroke-miterlimit="10" x1="123.726" y1="673" x2="47.076" y2="673"/>
			<g>
				<polygon fill="#FFFFFF" points="51.148,703.371 51.148,642.629 20.785,673 				"/>
			</g>
		</g>
	</g>
	<g display="inline">
		<g>
			
				<line fill="none" stroke="#FFFFFF" stroke-width="5" stroke-miterlimit="10" x1="135.883" y1="660.843" x2="135.883" y2="584.193"/>
			<g>
				<polygon fill="#FFFFFF" points="105.512,588.265 166.254,588.265 135.883,557.901 				"/>
			</g>
		</g>
	</g>
	<g display="inline">
		<g>
			
				<line fill="none" stroke="#FFFFFF" stroke-width="5" stroke-miterlimit="10" x1="135.883" y1="688.157" x2="135.883" y2="764.807"/>
			<g>
				<polygon fill="#FFFFFF" points="166.254,760.735 105.512,760.735 135.883,791.099 				"/>
			</g>
		</g>
	</g>
</g>
<g>
	<path fill="#033D5C" d="M632.423,82.941c1.089,0,2.176-0.39,3.036-1.162l17.744-15.917l-6.07-6.767l-9.607,8.619V32.922H625.42
		V67.05l-10.002-7.921l-5.645,7.126l19.828,15.704C630.431,82.615,631.428,82.941,632.423,82.941z"/>
	<path fill="#033D5C" d="M667.494,71.587v46.868h-72.047V72.573h-13.373v52.569c0,3.693,2.994,6.686,6.687,6.686h85.42
		c3.692,0,6.688-2.993,6.688-6.686V71.587H667.494z"/>
</g>
<text transform="matrix(1 0 0 1 -675.9844 1302.3711)" fill="#FFFFFF" font-family="'Lato-Bold'" font-size="41.629">Guardar</text>
<polygon fill="#033D5C" points="794.396,65.514 784.939,56.058 755.77,85.228 726.604,56.062 717.146,65.518 746.312,94.684 
	717.146,123.85 726.604,133.305 755.77,104.139 784.934,133.303 794.39,123.848 765.226,94.684 "/>
<polygon fill="#033D5C" points="900.496,101.368 900.495,87.996 863.243,87.996 863.243,50.749 849.87,50.748 849.87,87.995 
	812.623,87.995 812.624,101.368 849.871,101.368 849.871,138.612 863.243,138.612 863.243,101.368 "/>
<text transform="matrix(1 0 0 1 -1073.6113 983.627)" fill="#FFFFFF" font-family="'Lato-Bold'" font-size="41.629">Cancelar</text>
<g>
	<circle fill="#404041" cx="357.097" cy="41.38" r="4.813"/>
	<circle fill="#404041" cx="357.097" cy="56.567" r="4.813"/>
	<circle fill="#404041" cx="357.097" cy="71.753" r="4.813"/>
</g>
<g>
	<rect x="748.943" y="190.578" fill="#00AEEF" width="138.004" height="138.004"/>
	<g>
		
			<line fill="none" stroke="#FFFFFF" stroke-width="17.0433" stroke-miterlimit="10" x1="841.611" y1="238.403" x2="794.264" y2="285.751"/>
		
			<line fill="none" stroke="#FFFFFF" stroke-width="17.0433" stroke-miterlimit="10" x1="794.264" y1="238.407" x2="841.607" y2="285.75"/>
	</g>
</g>
<g>
	<rect x="582.074" y="190.578" fill="#00AEEF" width="138.002" height="138.003"/>
	<path fill="#FFFFFF" d="M682.717,236.703c-0.404-2.237-1.871-4.371-4.015-5.855l-10.847-7.546
		c-3.739-2.613-8.815-2.26-10.901,0.756l-3.892,5.587c-0.375,0.545-0.524,1.212-0.401,1.861c0,0.028,0.019,0.056,0.026,0.085
		l-2.02,2.913c-0.066,0.084-0.066,0.188-0.123,0.282l-27.648,39.734l0.234,0.15c-0.545,0.434-0.883,1.071-0.931,1.781l-1.271,21.713
		c-0.037,0.649,0.188,1.278,0.592,1.759l-0.025,0.339l0.264-0.123c0.074,0.076,0.147,0.15,0.234,0.216
		c0.432,0.296,0.92,0.442,1.428,0.442c0.338,0,0.678-0.066,0.996-0.207l19.924-8.741c0.639-0.281,1.129-0.827,1.344-1.484
		l0.396,0.278l27.367-39.345c0.188-0.175,0.366-0.367,0.526-0.583l1.908-2.745c0.131,0,0.262-0.009,0.401-0.038
		c0.647-0.113,1.224-0.484,1.599-1.024l3.883-5.579C682.678,240.03,683.008,238.39,682.717,236.703z M630.342,292.565l-2.351-1.635
		l-1.58-1.101l0.509-8.655l11.352,7.903L630.342,292.565z M677.688,238.479l-2.198,3.172c-0.349-0.118-0.687-0.164-1.032-0.164
		l-15.291-10.629c-0.095-0.263-0.188-0.517-0.349-0.752l2.229-3.214c0.479-0.686,2.508-0.526,3.965,0.489l10.854,7.556
		c1.229,0.855,1.812,1.927,1.945,2.65C677.857,237.851,677.874,238.212,677.688,238.479z"/>
</g>
<g>
	<rect x="915.812" y="190.578" fill="#00AEEF" width="138.005" height="138.004"/>
	<path fill="#FFFFFF" d="M989.932,225.902c-18.569,0-33.679,15.107-33.679,33.677c0,0.741,0.027,1.484,0.076,2.227l-5.06-4.133
		l-5.244,6.42l16.263,13.287l17.631-12.198l-4.715-6.818l-5.782,4c-0.126-0.925-0.194-1.857-0.194-2.785
		c0-11.415,9.287-20.703,20.704-20.703c11.413,0,20.699,9.287,20.699,20.703c0,11.415-9.286,20.702-20.699,20.702
		c-2.131,0-4.245-0.328-6.283-0.974l-6.186-1.959l-3.92,12.368l6.186,1.961c3.309,1.048,6.741,1.58,10.203,1.58
		c18.569,0,33.676-15.107,33.676-33.677C1023.606,241.01,1008.5,225.902,989.932,225.902z"/>
</g>
<g>
	<rect x="226.496" y="432.065" fill="#00AEEF" width="166.847" height="166.847"/>
	<g>
		
			<line fill="none" stroke="#FFFFFF" stroke-width="20.6053" stroke-miterlimit="10" x1="338.532" y1="489.886" x2="281.288" y2="547.13"/>
		
			<line fill="none" stroke="#FFFFFF" stroke-width="20.6053" stroke-miterlimit="10" x1="281.288" y1="489.891" x2="338.527" y2="547.129"/>
	</g>
</g>
<g>
	<rect x="24.751" y="432.066" fill="#00AEEF" width="166.844" height="166.845"/>
	<path fill="#FFFFFF" d="M146.428,487.831c-0.489-2.704-2.262-5.284-4.854-7.079l-13.113-9.123
		c-4.522-3.159-10.659-2.731-13.181,0.915l-4.704,6.754c-0.453,0.659-0.635,1.465-0.486,2.25c0,0.034,0.022,0.068,0.033,0.104
		l-2.442,3.521c-0.08,0.103-0.08,0.228-0.148,0.34l-33.427,48.039l0.283,0.183c-0.659,0.523-1.067,1.295-1.125,2.153l-1.535,26.25
		c-0.045,0.785,0.228,1.546,0.715,2.127l-0.032,0.41l0.319-0.148c0.089,0.092,0.178,0.182,0.283,0.261
		c0.522,0.357,1.112,0.535,1.726,0.535c0.409,0,0.819-0.081,1.205-0.25l24.088-10.568c0.772-0.34,1.365-1,1.625-1.795l0.477,0.336
		l33.086-47.568c0.228-0.211,0.444-0.443,0.638-0.704l2.307-3.318c0.158,0,0.317-0.011,0.485-0.045
		c0.784-0.137,1.479-0.586,1.933-1.239l4.694-6.744C146.381,491.854,146.78,489.871,146.428,487.831z M83.107,555.368l-2.842-1.977
		l-1.91-1.331l0.615-10.464l13.724,9.556L83.107,555.368z M140.348,489.979l-2.659,3.836c-0.42-0.144-0.829-0.198-1.248-0.198
		l-18.487-12.852c-0.115-0.317-0.228-0.625-0.421-0.908l2.695-3.886c0.579-0.83,3.032-0.636,4.793,0.591l13.123,9.136
		c1.488,1.034,2.191,2.33,2.352,3.204C140.553,489.218,140.573,489.656,140.348,489.979z"/>
</g>
<g>
	<rect x="428.242" y="432.065" fill="#00AEEF" width="166.846" height="166.847"/>
	<path fill="#FFFFFF" d="M517.85,474.773c-22.45,0-40.717,18.265-40.717,40.716c0,0.896,0.033,1.794,0.092,2.691l-6.115-4.997
		l-6.342,7.763l19.662,16.063l21.315-14.747l-5.7-8.242l-6.991,4.836c-0.151-1.118-0.234-2.246-0.234-3.367
		c0-13.801,11.228-25.03,25.03-25.03c13.799,0,25.026,11.229,25.026,25.03c0,13.8-11.228,25.028-25.026,25.028
		c-2.575,0-5.132-0.396-7.597-1.179l-7.477-2.369l-4.739,14.953l7.479,2.371c3.999,1.269,8.15,1.91,12.335,1.91
		c22.451,0,40.712-18.265,40.712-40.715C558.562,493.038,540.3,474.773,517.85,474.773z"/>
</g>
<rect x="933.076" y="55.215" fill="none" stroke="#033D5C" stroke-width="10" stroke-miterlimit="10" width="78.09" height="78.09"/>
<g>
	
		<line fill="none" stroke="#033D5C" stroke-width="10" stroke-miterlimit="10" x1="972.122" y1="76.728" x2="972.122" y2="114.618"/>
	<line fill="none" stroke="#033D5C" stroke-width="10" stroke-miterlimit="10" x1="953.178" y1="95.674" x2="991.064" y2="95.674"/>
</g>
<polygon opacity="0.3" fill="#004056" points="29.632,346.237 68.521,405.408 196.093,405.408 196.093,316.866 169.859,269.697 
	55.657,289.19 "/>
<g>
	<path fill="#FFFFFF" d="M165.165,321.153c0,29.561-23.968,53.522-53.523,53.522c-29.562,0-53.527-23.961-53.527-53.522
		c0-29.56,23.965-53.524,53.527-53.524C141.196,267.629,165.165,291.593,165.165,321.153z"/>
	<g>
		<g>
			<g>
				<path fill="#F1623E" d="M127.72,405.408l-23.642-24.022c-2.552,0.522-5.15,0.926-7.788,1.216
					c-2.643,0.288-5.353,0.435-8.135,0.435c-9.867,0-18.861-1.651-26.98-4.961c-8.126-3.305-15.074-7.878-20.848-13.704
					c-5.771-5.834-10.239-12.692-13.4-20.584c-3.163-7.892-4.744-16.418-4.744-25.587c0-9.167,1.582-17.696,4.744-25.589
					c3.161-7.888,7.628-14.736,13.4-20.538c5.774-5.801,12.722-10.357,20.848-13.664c8.119-3.308,17.113-4.961,26.98-4.961
					c9.86,0,18.84,1.668,26.93,5.005c8.097,3.336,15.015,7.905,20.76,13.707c5.743,5.803,10.194,12.649,13.359,20.54
					c3.161,7.891,4.742,16.392,4.742,25.5c0,5.454-0.565,10.691-1.699,15.708c-1.126,5.019-2.752,9.734-4.872,14.141
					c-2.12,4.414-4.727,8.502-7.829,12.271c-3.106,3.775-6.63,7.11-10.58,10.014l32.117,35.072H127.72z M123.836,318.202
					c0-6.267-0.813-11.909-2.44-16.927c-1.622-5.018-3.958-9.27-7.002-12.751c-3.048-3.481-6.774-6.148-11.185-8.006
					c-4.412-1.856-9.431-2.785-15.054-2.785c-5.688,0-10.751,0.929-15.189,2.785c-4.438,1.857-8.182,4.525-11.228,8.006
					c-3.046,3.481-5.382,7.733-7.006,12.751c-1.625,5.018-2.435,10.66-2.435,16.927c0,6.325,0.811,11.998,2.435,17.013
					c1.625,5.021,3.96,9.271,7.006,12.751c3.046,3.483,6.79,6.135,11.228,7.964s9.5,2.744,15.189,2.744
					c5.623,0,10.642-0.915,15.054-2.744c4.411-1.829,8.137-4.481,11.185-7.964c3.043-3.48,5.38-7.729,7.002-12.751
					C123.023,330.199,123.836,324.527,123.836,318.202z"/>
			</g>
		</g>
		<path fill="#79BC8F" d="M113.905,348.391c-3.048,3.479-6.778,6.135-11.185,7.959c-1.746,0.726-3.593,1.302-5.528,1.737v7.061
			h37.845c1.408-1.4,2.749-2.859,4.017-4.4c3.106-3.774,5.713-7.863,7.833-12.271c2.121-4.406,3.742-9.126,4.874-14.143
			c1.133-5.017,1.699-10.254,1.699-15.709c0-9.107-1.582-17.608-4.743-25.5c-3.165-7.89-7.617-14.736-13.359-20.538
			c-5.745-5.801-12.663-10.37-20.755-13.708c-5.409-2.229-11.214-3.709-17.41-4.449v24.749c1.935,0.444,3.783,1.026,5.528,1.762
			c4.407,1.858,8.137,4.526,11.185,8.008c3.044,3.481,5.38,7.733,7.002,12.75c1.626,5.019,2.44,10.661,2.44,16.927
			c0,6.326-0.813,11.996-2.44,17.016C119.285,340.657,116.949,344.906,113.905,348.391z"/>
		<g>
			<path fill="#FAF39F" d="M151.465,405.408l-23.644-24.022c-2.555,0.522-5.152,0.926-7.79,1.216
				c-2.636,0.288-5.351,0.435-8.14,0.435c-9.861,0-18.854-1.651-26.978-4.961c-8.124-3.305-15.069-7.878-20.843-13.704
				c-5.772-5.834-10.239-12.692-13.403-20.584c-3.163-7.892-4.742-16.418-4.742-25.587c0-9.167,1.579-17.696,4.742-25.589
				c3.164-7.888,7.631-14.736,13.403-20.538c5.773-5.801,12.719-10.357,20.843-13.664c8.125-3.308,17.117-4.961,26.978-4.961
				c9.867,0,18.85,1.668,26.939,5.005c8.094,3.336,15.011,7.905,20.753,13.707c5.75,5.803,10.201,12.649,13.362,20.54
				c3.166,7.891,4.742,16.392,4.742,25.5c0,5.454-0.561,10.691-1.694,15.708c-1.133,5.019-2.758,9.734-4.874,14.141
				c-2.12,4.414-4.733,8.502-7.833,12.271c-3.106,3.775-6.63,7.11-10.574,10.014l32.111,35.072H151.465z M147.574,318.202
				c0-6.267-0.806-11.909-2.433-16.927c-1.626-5.018-3.958-9.27-7.006-12.751c-3.044-3.481-6.775-6.148-11.183-8.006
				c-4.409-1.856-9.433-2.785-15.061-2.785c-5.684,0-10.744,0.929-15.184,2.785c-4.438,1.857-8.18,4.525-11.226,8.006
				c-3.046,3.481-5.384,7.733-7.006,12.751c-1.626,5.018-2.438,10.66-2.438,16.927c0,6.325,0.811,11.998,2.438,17.013
				c1.623,5.021,3.96,9.271,7.006,12.751c3.046,3.483,6.788,6.135,11.226,7.964c4.44,1.829,9.5,2.744,15.184,2.744
				c5.628,0,10.652-0.915,15.061-2.744c4.408-1.829,8.139-4.481,11.183-7.964c3.047-3.48,5.379-7.729,7.006-12.751
				C146.768,330.199,147.574,324.527,147.574,318.202z"/>
		</g>
	</g>
</g>
<g>
	<circle fill="#FFFFFF" cx="56.81" cy="182.001" r="20.718"/>
	<g>
		<g>
			<g>
				<path fill="#F1623E" d="M63.034,214.614l-9.151-9.298c-0.988,0.202-1.993,0.358-3.014,0.471
					c-1.023,0.112-2.072,0.168-3.149,0.168c-3.819,0-7.301-0.639-10.443-1.92c-3.145-1.279-5.835-3.049-8.07-5.304
					c-2.234-2.258-3.963-4.913-5.187-7.967c-1.224-3.055-1.836-6.355-1.836-9.904c0-3.548,0.612-6.85,1.836-9.905
					c1.224-3.053,2.953-5.704,5.187-7.95c2.235-2.246,4.925-4.009,8.07-5.289c3.143-1.28,6.624-1.92,10.443-1.92
					c3.817,0,7.292,0.646,10.424,1.938c3.134,1.291,5.812,3.06,8.036,5.306c2.223,2.246,3.946,4.896,5.171,7.95
					c1.224,3.054,1.835,6.345,1.835,9.87c0,2.111-0.219,4.138-0.658,6.08c-0.436,1.943-1.065,3.768-1.886,5.474
					c-0.821,1.708-1.83,3.291-3.03,4.75c-1.203,1.461-2.566,2.752-4.095,3.876l12.432,13.576H63.034z M61.531,180.858
					c0-2.426-0.315-4.61-0.944-6.552c-0.628-1.942-1.532-3.588-2.71-4.936c-1.18-1.347-2.622-2.38-4.329-3.099
					c-1.708-0.718-3.65-1.078-5.827-1.078c-2.202,0-4.162,0.36-5.879,1.078c-1.718,0.719-3.167,1.751-4.346,3.099
					c-1.179,1.348-2.083,2.994-2.712,4.936c-0.628,1.942-0.942,4.126-0.942,6.552c0,2.448,0.314,4.644,0.942,6.585
					c0.629,1.944,1.533,3.588,2.712,4.936c1.18,1.349,2.628,2.375,4.346,3.083s3.678,1.062,5.879,1.062
					c2.177,0,4.119-0.354,5.827-1.062c1.707-0.708,3.149-1.734,4.329-3.083c1.178-1.347,2.083-2.992,2.71-4.936
					C61.216,185.502,61.531,183.307,61.531,180.858z"/>
			</g>
		</g>
		<path fill="#79BC8F" d="M57.687,192.544c-1.18,1.347-2.624,2.375-4.329,3.081c-0.676,0.281-1.391,0.504-2.14,0.672v2.733h14.649
			c0.545-0.542,1.064-1.107,1.555-1.703c1.202-1.461,2.211-3.043,3.032-4.75c0.821-1.706,1.448-3.533,1.886-5.475
			c0.439-1.942,0.658-3.969,0.658-6.081c0-3.525-0.612-6.816-1.836-9.871c-1.225-3.054-2.948-5.704-5.171-7.949
			c-2.224-2.246-4.902-4.014-8.034-5.306c-2.093-0.863-4.341-1.436-6.739-1.722v9.58c0.749,0.172,1.464,0.397,2.14,0.682
			c1.706,0.719,3.149,1.751,4.329,3.1c1.178,1.347,2.083,2.993,2.71,4.935c0.63,1.943,0.945,4.126,0.945,6.552
			c0,2.449-0.315,4.644-0.945,6.586C59.769,189.55,58.865,191.195,57.687,192.544z"/>
		<g>
			<path fill="#FAF39F" d="M72.225,214.614l-9.152-9.298c-0.989,0.202-1.994,0.358-3.015,0.471
				c-1.021,0.112-2.071,0.168-3.151,0.168c-3.817,0-7.298-0.639-10.442-1.92c-3.145-1.279-5.833-3.049-8.068-5.304
				c-2.234-2.258-3.963-4.913-5.188-7.967c-1.224-3.055-1.835-6.355-1.835-9.904c0-3.548,0.611-6.85,1.835-9.905
				c1.225-3.053,2.954-5.704,5.188-7.95c2.235-2.246,4.923-4.009,8.068-5.289c3.145-1.28,6.625-1.92,10.442-1.92
				c3.819,0,7.296,0.646,10.428,1.938c3.133,1.291,5.81,3.06,8.033,5.306c2.226,2.246,3.949,4.896,5.172,7.95
				c1.225,3.054,1.835,6.345,1.835,9.87c0,2.111-0.217,4.138-0.656,6.08c-0.438,1.943-1.067,3.768-1.886,5.474
				c-0.821,1.708-1.832,3.291-3.032,4.75c-1.202,1.461-2.566,2.752-4.093,3.876l12.429,13.576H72.225z M70.719,180.858
				c0-2.426-0.312-4.61-0.942-6.552c-0.629-1.942-1.532-3.588-2.712-4.936c-1.178-1.347-2.622-2.38-4.329-3.099
				c-1.707-0.718-3.651-1.078-5.83-1.078c-2.2,0-4.159,0.36-5.877,1.078c-1.718,0.719-3.166,1.751-4.345,3.099
				c-1.179,1.348-2.084,2.994-2.712,4.936c-0.629,1.942-0.943,4.126-0.943,6.552c0,2.448,0.314,4.644,0.943,6.585
				c0.628,1.944,1.533,3.588,2.712,4.936c1.179,1.349,2.627,2.375,4.345,3.083c1.719,0.708,3.677,1.062,5.877,1.062
				c2.179,0,4.123-0.354,5.83-1.062s3.15-1.734,4.329-3.083c1.18-1.347,2.083-2.992,2.712-4.936
				C70.407,185.502,70.719,183.307,70.719,180.858z"/>
		</g>
	</g>
</g>
<g>
	<circle fill="#FFFFFF" stroke="#004056" stroke-width="1.0199" stroke-miterlimit="10" cx="219.723" cy="56.567" r="22"/>
</g>
<g>
	<circle fill="#FFFFFF" stroke="#004056" stroke-width="1.0199" stroke-miterlimit="10" cx="291.353" cy="56.567" r="22"/>
	<circle fill="#004056" cx="291.353" cy="56.567" r="14"/>
</g>
<text transform="matrix(1 0 0 1 223.5312 302.1377)"><tspan x="0" y="0" fill="#FAF39F" font-family="'Lato-Hairline'" font-size="51.8956">SISTEMA </tspan><tspan x="0" y="49.424" fill="#FAF39F" font-family="'Lato-Hairline'" font-size="51.8956">DE </tspan><tspan x="0" y="98.849" fill="#FAF39F" font-family="'Lato-Hairline'" font-size="51.8956">CONTROL</tspan></text>
<text transform="matrix(1 0 0 1 101.7285 199.5942)" fill="#FAF39F" font-family="'Lato-Hairline'" font-size="38.0997">SISTEMA DE CONTROL</text>
<g>
	<path fill="#FFFFFF" d="M115.178,678.998c0,18.695-15.159,33.85-33.85,33.85c-18.696,0-33.853-15.154-33.853-33.85
		s15.157-33.851,33.853-33.851C100.02,645.147,115.178,660.303,115.178,678.998z"/>
	<g>
		<g>
			<g>
				<path fill="#F1623E" d="M91.497,732.285l-14.952-15.192c-1.614,0.33-3.257,0.585-4.925,0.769
					c-1.671,0.182-3.385,0.275-5.145,0.275c-6.24,0-11.928-1.044-17.063-3.138c-5.139-2.09-9.533-4.982-13.185-8.667
					c-3.65-3.69-6.476-8.027-8.475-13.019c-2-4.991-3-10.384-3-16.182c0-5.797,1-11.191,3-16.184
					c1.999-4.988,4.825-9.319,8.475-12.989c3.652-3.669,8.046-6.55,13.185-8.642c5.135-2.092,10.823-3.137,17.063-3.137
					c6.236,0,11.916,1.055,17.032,3.165c5.121,2.11,9.496,5,13.13,8.669c3.632,3.67,6.447,8,8.449,12.99
					c1.999,4.99,2.999,10.367,2.999,16.127c0,3.45-0.357,6.761-1.074,9.935c-0.712,3.174-1.741,6.156-3.082,8.943
					c-1.341,2.792-2.989,5.377-4.951,7.761c-1.965,2.388-4.193,4.497-6.691,6.333l20.312,22.181H91.497z M89.041,677.131
					c0-3.963-0.514-7.532-1.543-10.706c-1.026-3.173-2.503-5.862-4.428-8.064c-1.928-2.202-4.285-3.889-7.074-5.063
					c-2.79-1.174-5.964-1.761-9.521-1.761c-3.598,0-6.799,0.587-9.606,1.761c-2.807,1.175-5.175,2.862-7.101,5.063
					c-1.927,2.202-3.404,4.891-4.431,8.064c-1.027,3.174-1.54,6.742-1.54,10.706c0,4,0.513,7.588,1.54,10.76
					c1.027,3.176,2.504,5.863,4.431,8.064c1.926,2.203,4.294,3.88,7.101,5.037c2.807,1.157,6.008,1.735,9.606,1.735
					c3.556,0,6.73-0.578,9.521-1.735c2.79-1.157,5.146-2.834,7.074-5.037c1.925-2.201,3.402-4.888,4.428-8.064
					C88.526,684.719,89.041,681.132,89.041,677.131z"/>
			</g>
		</g>
		<path fill="#79BC8F" d="M82.76,696.224c-1.928,2.2-4.287,3.88-7.074,5.034c-1.104,0.458-2.273,0.823-3.497,1.099v4.465h23.935
			c0.891-0.885,1.738-1.809,2.541-2.783c1.965-2.387,3.613-4.973,4.954-7.761c1.341-2.787,2.367-5.771,3.082-8.944
			c0.717-3.173,1.075-6.485,1.075-9.935c0-5.76-1-11.136-3-16.127c-2.002-4.99-4.817-9.319-8.449-12.989
			c-3.633-3.669-8.009-6.558-13.126-8.669c-3.421-1.41-7.093-2.346-11.011-2.814v15.652c1.224,0.281,2.393,0.649,3.497,1.114
			c2.787,1.175,5.146,2.862,7.074,5.064c1.925,2.202,3.402,4.891,4.429,8.063c1.028,3.174,1.543,6.743,1.543,10.706
			c0,4-0.515,7.587-1.543,10.761C86.162,691.333,84.685,694.02,82.76,696.224z"/>
		<g>
			<path fill="#FAF39F" d="M106.514,732.285l-14.953-15.192c-1.616,0.33-3.258,0.585-4.927,0.769
				c-1.667,0.182-3.384,0.275-5.148,0.275c-6.236,0-11.924-1.044-17.062-3.138c-5.138-2.09-9.531-4.982-13.182-8.667
				c-3.65-3.69-6.476-8.027-8.477-13.019c-2-4.991-2.999-10.384-2.999-16.182c0-5.797,0.999-11.191,2.999-16.184
				c2.001-4.988,4.826-9.319,8.477-12.989c3.651-3.669,8.044-6.55,13.182-8.642c5.138-2.092,10.826-3.137,17.062-3.137
				c6.24,0,11.921,1.055,17.038,3.165c5.119,2.11,9.494,5,13.125,8.669c3.636,3.67,6.451,8,8.451,12.99
				c2.002,4.99,2.999,10.367,2.999,16.127c0,3.45-0.355,6.761-1.071,9.935c-0.717,3.174-1.744,6.156-3.082,8.943
				c-1.341,2.792-2.993,5.377-4.954,7.761c-1.965,2.388-4.193,4.497-6.688,6.333l20.309,22.181H106.514z M104.053,677.131
				c0-3.963-0.51-7.532-1.539-10.706c-1.029-3.173-2.503-5.862-4.431-8.064c-1.925-2.202-4.285-3.889-7.073-5.063
				c-2.789-1.174-5.966-1.761-9.525-1.761c-3.595,0-6.795,0.587-9.603,1.761c-2.807,1.175-5.174,2.862-7.1,5.063
				s-3.405,4.891-4.431,8.064c-1.028,3.174-1.542,6.742-1.542,10.706c0,4,0.513,7.588,1.542,10.76
				c1.026,3.176,2.505,5.863,4.431,8.064c1.926,2.203,4.293,3.88,7.1,5.037c2.808,1.157,6.008,1.735,9.603,1.735
				c3.559,0,6.736-0.578,9.525-1.735c2.788-1.157,5.147-2.834,7.073-5.037c1.927-2.201,3.402-4.888,4.431-8.064
				C103.543,684.719,104.053,681.132,104.053,677.131z"/>
		</g>
	</g>
</g>
<text transform="matrix(1 0 0 1 137.5522 695.1079)" fill="#FAF39F" font-family="'Lato-Hairline'" font-size="35.3836">SISTEMA DE CONTROL</text>
</svg>
