<?xml version="1.0" encoding="utf-8"?>
<!-- Generator: Adobe Illustrator 16.2.1, SVG Export Plug-In . SVG Version: 6.00 Build 0)  -->
<!DOCTYPE svg PUBLIC "-//W3C//DTD SVG 1.1//EN" "http://www.w3.org/Graphics/SVG/1.1/DTD/svg11.dtd">
<svg version="1.1" xmlns="http://www.w3.org/2000/svg" xmlns:xlink="http://www.w3.org/1999/xlink" x="0px" y="0px" width="1080px"
	 height="1920px" viewBox="0 0 1080 1920" enable-background="new 0 0 1080 1920" xml:space="preserve">
<g id="Layer_3" display="none">
	<rect display="inline" width="1080" height="1920"/>
</g>
<g id="Layer_1">
	<polygon fill="#FFFFFF" points="189.466,945.864 126.478,945.864 126.478,882.864 83.458,882.864 83.458,945.864 20.466,945.864 
		20.466,988.88 83.458,988.88 83.458,1051.864 126.478,1051.864 126.478,988.88 189.466,988.88 	"/>
	<polygon fill="#FFFFFF" points="583.798,922.797 553.365,892.364 508.793,936.937 464.23,892.374 433.798,922.807 478.359,967.371 
		433.799,1011.932 464.231,1042.364 508.793,997.804 553.353,1042.364 583.786,1011.932 539.226,967.371 	"/>
	<path fill="#FFFFFF" d="M723.793,894.003c-40.454,0-73.366,32.91-73.366,73.361c0,1.615,0.059,3.234,0.167,4.852l-11.021-9.005
		l-11.425,13.985l35.428,28.945l38.407-26.572l-10.273-14.851l-12.595,8.714c-0.274-2.016-0.423-4.047-0.423-6.068
		c0-24.866,20.231-45.097,45.101-45.097c24.863,0,45.091,20.23,45.091,45.097s-20.228,45.097-45.091,45.097
		c-4.642,0-9.248-0.714-13.689-2.122l-13.472-4.269l-8.539,26.943l13.473,4.271c7.206,2.284,14.686,3.441,22.228,3.441
		c40.448,0,73.355-32.91,73.355-73.361C797.148,926.913,764.241,894.003,723.793,894.003z"/>
	<path fill="#FFFFFF" d="M389.188,905.832c-1.018-5.625-4.701-10.989-10.092-14.724l-27.271-18.976
		c-9.406-6.569-22.168-5.684-27.414,1.901l-9.784,14.049c-0.945,1.372-1.324,3.049-1.016,4.68c0,0.072,0.047,0.143,0.07,0.214
		l-5.08,7.326c-0.166,0.212-0.166,0.472-0.308,0.708l-69.526,99.918l0.591,0.379c-1.371,1.087-2.222,2.693-2.34,4.477l-3.19,54.603
		c-0.094,1.632,0.475,3.214,1.488,4.42l-0.07,0.852l0.662-0.308c0.188,0.189,0.378,0.379,0.591,0.543
		c1.087,0.744,2.314,1.11,3.593,1.11c0.85,0,1.7-0.165,2.504-0.519l50.1-21.979c1.607-0.708,2.838-2.079,3.381-3.733l0.993,0.698
		l68.816-98.937c0.473-0.439,0.922-0.924,1.324-1.466l4.799-6.901c0.328,0,0.66-0.023,1.014-0.094
		c1.633-0.284,3.074-1.218,4.018-2.576l9.762-14.027C389.092,914.198,389.92,910.074,389.188,905.832z M257.484,1046.303
		l-5.908-4.112l-3.971-2.766l1.275-21.766l28.548,19.875L257.484,1046.303z M376.543,910.298l-5.531,7.977
		c-0.873-0.296-1.723-0.413-2.598-0.413l-38.449-26.729c-0.238-0.66-0.473-1.299-0.875-1.89l5.602-8.083
		c1.205-1.725,6.309-1.323,9.973,1.23l27.295,18.999c3.096,2.15,4.561,4.845,4.893,6.665
		C376.969,908.716,377.016,909.626,376.543,910.298z"/>
	<g>
		<rect x="21" y="32.041" fill="#FFFFFF" width="58" height="7.053"/>
		<rect x="21" y="66.988" fill="#FFFFFF" width="58" height="7.053"/>
		<rect x="21" y="49.515" fill="#FFFFFF" width="58" height="7.052"/>
	</g>
	<g>
		<g>
			<rect x="841.5" y="951.101" fill="#FFFFFF" width="32.526" height="32.526"/>
			<rect x="897.39" y="951.101" fill="#FFFFFF" width="113.11" height="32.526"/>
		</g>
		<g>
			<rect x="841.5" y="894.546" fill="#FFFFFF" width="32.526" height="32.525"/>
			<rect x="897.39" y="894.546" fill="#FFFFFF" width="113.11" height="32.525"/>
		</g>
		<g>
			<rect x="841.5" y="1007.656" fill="#FFFFFF" width="32.526" height="32.525"/>
			<rect x="897.39" y="1007.656" fill="#FFFFFF" width="113.11" height="32.525"/>
		</g>
	</g>
	<g>
		
			<line fill="none" stroke="#FFFFFF" stroke-width="5.8747" stroke-linecap="round" stroke-miterlimit="10" x1="106.729" y1="51.503" x2="132.953" y2="29.749"/>
		
			<line fill="none" stroke="#FFFFFF" stroke-width="5.8747" stroke-linecap="round" stroke-miterlimit="10" x1="159.176" y1="51.503" x2="133.2" y2="29.954"/>
		<path fill="#FFFFFF" d="M133.025,39.154l-22.312,18.661v15.357c0,4.907,4.829,8.886,10.789,8.886h23.049
			c5.959,0,10.789-3.979,10.789-8.886V57.815L133.025,39.154z M140.645,78.874h-15.237V64.683c0-4.208,3.412-7.619,7.618-7.619
			c4.207,0,7.619,3.412,7.619,7.619V78.874z"/>
	</g>
</g>
<g id="Layer_2" display="none">
	<g display="inline">
		<g>
			<line fill="none" stroke="#FFFFFF" stroke-width="5" stroke-miterlimit="10" x1="148.041" y1="673" x2="224.69" y2="673"/>
			<g>
				<polygon fill="#FFFFFF" points="220.618,642.629 220.618,703.371 250.982,673 				"/>
			</g>
		</g>
	</g>
	<g display="inline">
		<g>
			<line fill="none" stroke="#FFFFFF" stroke-width="5" stroke-miterlimit="10" x1="123.726" y1="673" x2="47.076" y2="673"/>
			<g>
				<polygon fill="#FFFFFF" points="51.148,703.371 51.148,642.629 20.785,673 				"/>
			</g>
		</g>
	</g>
	<g display="inline">
		<g>
			
				<line fill="none" stroke="#FFFFFF" stroke-width="5" stroke-miterlimit="10" x1="135.883" y1="660.843" x2="135.883" y2="584.193"/>
			<g>
				<polygon fill="#FFFFFF" points="105.512,588.265 166.254,588.265 135.883,557.901 				"/>
			</g>
		</g>
	</g>
	<g display="inline">
		<g>
			
				<line fill="none" stroke="#FFFFFF" stroke-width="5" stroke-miterlimit="10" x1="135.883" y1="688.157" x2="135.883" y2="764.807"/>
			<g>
				<polygon fill="#FFFFFF" points="166.254,760.735 105.512,760.735 135.883,791.099 				"/>
			</g>
		</g>
	</g>
</g>
</svg>
