<?xml version="1.0" encoding="utf-8"?>
<!-- Generator: Adobe Illustrator 16.2.1, SVG Export Plug-In . SVG Version: 6.00 Build 0)  -->
<!DOCTYPE svg PUBLIC "-//W3C//DTD SVG 1.1//EN" "http://www.w3.org/Graphics/SVG/1.1/DTD/svg11.dtd">
<svg version="1.1" id="Layer_1" xmlns="http://www.w3.org/2000/svg" xmlns:xlink="http://www.w3.org/1999/xlink" x="0px" y="0px"
	 width="1080px" height="1920px" viewBox="0 0 1080 1920" enable-background="new 0 0 1080 1920" xml:space="preserve">
<g>
	
		<line fill="none" stroke="#FFFFFF" stroke-width="42.8576" stroke-miterlimit="10" x1="104.968" y1="877.811" x2="104.968" y2="1046.189"/>
	
		<line fill="none" stroke="#FFFFFF" stroke-width="42.8576" stroke-miterlimit="10" x1="20.785" y1="962.008" x2="189.148" y2="962.008"/>
</g>
<g>
	
		<line fill="none" stroke="#FFFFFF" stroke-width="42.8576" stroke-miterlimit="10" x1="562.498" y1="902.47" x2="443.436" y2="1021.53"/>
	
		<line fill="none" stroke="#FFFFFF" stroke-width="42.8576" stroke-miterlimit="10" x1="443.436" y1="902.479" x2="562.486" y2="1021.53"/>
</g>
<g>
	<path fill="none" stroke="#FFFFFF" stroke-width="36" stroke-linecap="square" stroke-miterlimit="10" d="M692.197,1033.895
		c7.217,2.287,14.891,3.543,22.873,3.543c41.658,0,75.43-33.766,75.43-75.438c0-41.656-33.771-75.438-75.43-75.438
		c-41.664,0-75.443,33.78-75.443,75.438c0,5.053,0.512,9.998,1.465,14.766"/>
	<polyline fill="none" stroke="#FFFFFF" stroke-width="23" stroke-linecap="square" stroke-miterlimit="10" points="
		609.434,972.893 638.949,997.008 671.293,974.631 	"/>
</g>
<path fill="#FFFFFF" d="M377.522,900.468c-1.018-5.625-4.701-10.989-10.092-14.724l-27.271-18.977
	c-9.406-6.568-22.168-5.684-27.414,1.901l-9.784,14.049c-0.945,1.372-1.324,3.049-1.016,4.681c0,0.071,0.047,0.143,0.07,0.214
	l-5.08,7.325c-0.166,0.213-0.166,0.473-0.308,0.709l-69.526,99.918l0.591,0.379c-1.371,1.087-2.222,2.692-2.34,4.477l-3.19,54.604
	c-0.094,1.632,0.475,3.214,1.488,4.42l-0.07,0.852l0.662-0.308c0.188,0.188,0.378,0.379,0.591,0.543
	c1.087,0.744,2.314,1.109,3.593,1.109c0.85,0,1.7-0.165,2.504-0.519l50.1-21.979c1.606-0.708,2.838-2.079,3.381-3.732l0.993,0.698
	l68.816-98.938c0.473-0.439,0.922-0.924,1.324-1.466l4.799-6.901c0.328,0,0.66-0.022,1.014-0.094
	c1.633-0.284,3.074-1.218,4.018-2.576l9.762-14.027C377.426,908.834,378.254,904.71,377.522,900.468z M245.818,1040.938
	l-5.908-4.111l-3.971-2.767l1.275-21.766l28.548,19.875L245.818,1040.938z M364.877,904.934l-5.531,7.978
	c-0.873-0.296-1.723-0.413-2.598-0.413l-38.449-26.729c-0.238-0.659-0.473-1.299-0.875-1.89l5.602-8.083
	c1.205-1.725,6.309-1.323,9.973,1.23l27.295,18.999c3.096,2.149,4.561,4.845,4.893,6.664
	C365.303,903.352,365.35,904.262,364.877,904.934z"/>
<g>
	<rect x="20.785" y="32.436" fill="#FBF7CC" width="58.431" height="5.898"/>
	<rect x="20.785" y="61.665" fill="#FBF7CC" width="58.431" height="5.899"/>
	<rect x="20.785" y="47.051" fill="#FBF7CC" width="58.431" height="5.898"/>
</g>
<g>
	<g>
		<line fill="none" stroke="#FFFFFF" stroke-width="5" stroke-miterlimit="10" x1="148.041" y1="673" x2="224.69" y2="673"/>
		<g>
			<polygon fill="#FFFFFF" points="220.618,642.629 220.618,703.371 250.982,673 			"/>
		</g>
	</g>
</g>
<g>
	<g>
		<line fill="none" stroke="#FFFFFF" stroke-width="5" stroke-miterlimit="10" x1="123.726" y1="673" x2="47.076" y2="673"/>
		<g>
			<polygon fill="#FFFFFF" points="51.148,703.371 51.148,642.629 20.785,673 			"/>
		</g>
	</g>
</g>
<g>
	<g>
		
			<line fill="none" stroke="#FFFFFF" stroke-width="5" stroke-miterlimit="10" x1="135.883" y1="660.843" x2="135.883" y2="584.193"/>
		<g>
			<polygon fill="#FFFFFF" points="105.512,588.265 166.254,588.265 135.883,557.901 			"/>
		</g>
	</g>
</g>
<g>
	<g>
		
			<line fill="none" stroke="#FFFFFF" stroke-width="5" stroke-miterlimit="10" x1="135.883" y1="688.157" x2="135.883" y2="764.807"/>
		<g>
			<polygon fill="#FFFFFF" points="166.254,760.735 105.512,760.735 135.883,791.099 			"/>
		</g>
	</g>
</g>
</svg>
