<?xml version="1.0" encoding="utf-8"?>
<!-- Generator: Adobe Illustrator 16.2.1, SVG Export Plug-In . SVG Version: 6.00 Build 0)  -->
<!DOCTYPE svg PUBLIC "-//W3C//DTD SVG 1.1//EN" "http://www.w3.org/Graphics/SVG/1.1/DTD/svg11.dtd">
<svg version="1.1" xmlns="http://www.w3.org/2000/svg" xmlns:xlink="http://www.w3.org/1999/xlink" x="0px" y="0px" width="1080px"
	 height="1920px" viewBox="0 0 1080 1920" enable-background="new 0 0 1080 1920" xml:space="preserve">
<g id="Layer_3" display="none">
	<rect display="inline" width="1080" height="1920"/>
</g>
<g id="Layer_1">
	<polygon fill="#FFFFFF" points="189.466,945.864 126.478,945.864 126.478,882.864 83.458,882.864 83.458,945.864 20.466,945.864 
		20.466,988.88 83.458,988.88 83.458,1051.864 126.478,1051.864 126.478,988.88 189.466,988.88 	"/>
	<polygon fill="#FFFFFF" points="583.798,922.797 553.365,892.364 508.793,936.937 464.23,892.374 433.798,922.807 478.359,967.371 
		433.799,1011.932 464.231,1042.364 508.793,997.804 553.353,1042.364 583.786,1011.932 539.226,967.371 	"/>
	<path fill="#FFFFFF" d="M723.793,894.003c-40.454,0-73.366,32.91-73.366,73.361c0,1.615,0.059,3.234,0.167,4.852l-11.021-9.005
		l-11.425,13.985l35.428,28.945l38.407-26.572l-10.273-14.851l-12.595,8.714c-0.274-2.016-0.423-4.047-0.423-6.068
		c0-24.866,20.231-45.097,45.101-45.097c24.863,0,45.091,20.23,45.091,45.097s-20.228,45.097-45.091,45.097
		c-4.642,0-9.248-0.714-13.689-2.122l-13.472-4.269l-8.539,26.943l13.473,4.271c7.206,2.284,14.686,3.441,22.228,3.441
		c40.448,0,73.355-32.91,73.355-73.361C797.148,926.913,764.241,894.003,723.793,894.003z"/>
	<path fill="#FFFFFF" d="M389.188,905.832c-1.018-5.625-4.701-10.989-10.092-14.724l-27.271-18.976
		c-9.406-6.569-22.168-5.684-27.414,1.901l-9.784,14.049c-0.945,1.372-1.324,3.049-1.016,4.68c0,0.072,0.047,0.143,0.07,0.214
		l-5.08,7.326c-0.166,0.212-0.166,0.472-0.308,0.708l-69.526,99.918l0.591,0.379c-1.371,1.087-2.222,2.693-2.34,4.477l-3.19,54.603
		c-0.094,1.632,0.475,3.214,1.488,4.42l-0.07,0.852l0.662-0.308c0.188,0.189,0.378,0.379,0.591,0.543
		c1.087,0.744,2.314,1.11,3.593,1.11c0.85,0,1.7-0.165,2.504-0.519l50.1-21.979c1.607-0.708,2.838-2.079,3.381-3.733l0.993,0.698
		l68.816-98.937c0.473-0.439,0.922-0.924,1.324-1.466l4.799-6.901c0.328,0,0.66-0.023,1.014-0.094
		c1.633-0.284,3.074-1.218,4.018-2.576l9.762-14.027C389.092,914.198,389.92,910.074,389.188,905.832z M257.484,1046.303
		l-5.908-4.112l-3.971-2.766l1.275-21.766l28.548,19.875L257.484,1046.303z M376.543,910.298l-5.531,7.977
		c-0.873-0.296-1.723-0.413-2.598-0.413l-38.449-26.729c-0.238-0.66-0.473-1.299-0.875-1.89l5.602-8.083
		c1.205-1.725,6.309-1.323,9.973,1.23l27.295,18.999c3.096,2.15,4.561,4.845,4.893,6.665
		C376.969,908.716,377.016,909.626,376.543,910.298z"/>
	<g>
		<rect x="21" y="32.041" fill="#FFFFFF" width="58" height="7.053"/>
		<rect x="21" y="66.988" fill="#FFFFFF" width="58" height="7.053"/>
		<rect x="21" y="49.515" fill="#FFFFFF" width="58" height="7.052"/>
	</g>
	<g>
		<g>
			<rect x="841.5" y="951.101" fill="#FFFFFF" width="32.526" height="32.526"/>
			<rect x="897.39" y="951.101" fill="#FFFFFF" width="113.11" height="32.526"/>
		</g>
		<g>
			<rect x="841.5" y="894.546" fill="#FFFFFF" width="32.526" height="32.525"/>
			<rect x="897.39" y="894.546" fill="#FFFFFF" width="113.11" height="32.525"/>
		</g>
		<g>
			<rect x="841.5" y="1007.656" fill="#FFFFFF" width="32.526" height="32.525"/>
			<rect x="897.39" y="1007.656" fill="#FFFFFF" width="113.11" height="32.525"/>
		</g>
	</g>
	<g>
		
			<line fill="none" stroke="#FFFFFF" stroke-width="5.8747" stroke-linecap="round" stroke-miterlimit="10" x1="106.729" y1="51.503" x2="132.953" y2="29.749"/>
		
			<line fill="none" stroke="#FFFFFF" stroke-width="5.8747" stroke-linecap="round" stroke-miterlimit="10" x1="159.176" y1="51.503" x2="133.2" y2="29.954"/>
		<path fill="#FFFFFF" d="M133.025,39.154l-22.312,18.661v15.357c0,4.907,4.829,8.886,10.789,8.886h23.049
			c5.959,0,10.789-3.979,10.789-8.886V57.815L133.025,39.154z M140.645,78.874h-15.237V64.683c0-4.208,3.412-7.619,7.618-7.619
			c4.207,0,7.619,3.412,7.619,7.619V78.874z"/>
	</g>
	<text transform="matrix(1 0 0 1 25.958 205.3325)" fill="#FCF8CD" font-family="'Lato-Black'" font-size="68">QUINIELA</text>
	<g>
		<path fill="#002E3A" d="M511.476,385.408c0,11.046-8.954,20-20,20H41c-11.046,0-20-8.954-20-20V273.916c0-11.046,8.954-20,20-20
			h450.476c11.046,0,20,8.954,20,20V385.408z"/>
		<text transform="matrix(1 0 0 1 48.6426 361.127)" fill="#FCF8CD" font-family="'Lato-Black'" font-size="91.7571">QUINIELA</text>
	</g>
	<rect x="1400.096" y="34.615" stroke="#414042" stroke-width="5" stroke-miterlimit="10" width="681.545" height="750.175"/>
	<g>
		<g>
			<rect x="1447.054" y="413.853" fill="#00AEEF" width="138.004" height="138.003"/>
			<g>
				
					<line fill="none" stroke="#FFFFFF" stroke-width="17.0433" stroke-miterlimit="10" x1="1539.722" y1="461.678" x2="1492.374" y2="509.026"/>
				
					<line fill="none" stroke="#FFFFFF" stroke-width="17.0433" stroke-miterlimit="10" x1="1492.374" y1="461.682" x2="1539.718" y2="509.025"/>
			</g>
		</g>
		<text transform="matrix(1 0 0 1 1635.0752 509.0244)" fill="#FFFFFF" font-family="'Lato-Bold'" font-size="49">Anular jugada</text>
	</g>
	<text transform="matrix(1 0 0 1 1671.2695 140.8755)" fill="#FFFFFF" font-family="'Lato-Bold'" font-size="60">4351</text>
	<g>
		<rect x="1447.054" y="239.384" fill="#00AEEF" width="138.002" height="138.003"/>
		<text transform="matrix(1 0 0 1 1635.0732 329.9429)" fill="#FFFFFF" font-family="'Lato-Bold'" font-size="49">Editar jugada</text>
		<path fill="#FFFFFF" d="M1547.696,285.509c-0.404-2.237-1.871-4.371-4.014-5.855l-10.846-7.546
			c-3.74-2.613-8.816-2.26-10.902,0.756l-3.891,5.587c-0.375,0.545-0.525,1.212-0.402,1.861c0,0.028,0.018,0.056,0.027,0.085
			l-2.02,2.913c-0.066,0.084-0.066,0.188-0.123,0.282l-27.648,39.734l0.234,0.151c-0.545,0.433-0.883,1.071-0.93,1.781l-1.27,21.713
			c-0.037,0.649,0.189,1.278,0.592,1.758l-0.027,0.339l0.264-0.123c0.074,0.076,0.148,0.151,0.234,0.216
			c0.432,0.296,0.92,0.442,1.428,0.442c0.338,0,0.678-0.066,0.996-0.207l19.924-8.741c0.639-0.281,1.129-0.827,1.344-1.484
			l0.395,0.278l27.367-39.345c0.188-0.175,0.367-0.367,0.527-0.583l1.908-2.745c0.131,0,0.262-0.009,0.402-0.038
			c0.648-0.113,1.223-0.484,1.598-1.024l3.883-5.579C1547.657,288.836,1547.987,287.196,1547.696,285.509z M1495.321,341.371
			l-2.35-1.635l-1.58-1.1l0.508-8.656l11.352,7.904L1495.321,341.371z M1542.667,287.285l-2.199,3.172
			c-0.348-0.118-0.686-0.164-1.033-0.164l-15.291-10.629c-0.094-0.263-0.188-0.517-0.348-0.752l2.229-3.214
			c0.479-0.686,2.508-0.526,3.965,0.489l10.855,7.556c1.23,0.855,1.812,1.927,1.945,2.65
			C1542.837,286.656,1542.854,287.018,1542.667,287.285z"/>
	</g>
	<text transform="matrix(1 0 0 1 1514.3887 692.9287)" fill="#6D6E71" font-family="'Lato-Regular'" font-size="43">Jugada sincronizada</text>
	<g>
		<text transform="matrix(1 0 0 1 1587.8516 735.6479)" fill="#6D6E71" font-family="'Lato-Regular'" font-size="30">20/03/2015 10:23hs</text>
	</g>
	<path fill="#FCF8CD" stroke="#000000" stroke-width="1.0199" stroke-miterlimit="10" d="M627.369,73.468
		c0,2.816-2.282,5.099-5.099,5.099h-33.802c-2.815,0-5.1-2.283-5.1-5.099V39.666c0-2.816,2.284-5.099,5.1-5.099h33.802
		c2.816,0,5.099,2.283,5.099,5.099V73.468z"/>
	<path fill="#FCF8CD" stroke="#000000" stroke-width="1.0199" stroke-miterlimit="10" d="M699,73.468c0,2.816-2.283,5.099-5.1,5.099
		h-33.802c-2.815,0-5.099-2.283-5.099-5.099V39.666c0-2.816,2.283-5.099,5.099-5.099H693.9c2.816,0,5.1,2.283,5.1,5.099V73.468z"/>
	<path fill="#00A651" d="M707.905,37.335c-1.65-1.605-4.3-1.567-5.902,0.088l-24.526,25.261l-5.244-8.31
		c-1.229-1.948-3.812-2.53-5.76-1.301c-1.947,1.231-2.527,3.808-1.298,5.755l8.075,12.796c0.686,1.08,1.824,1.788,3.097,1.921
		c0.143,0.014,0.288,0.021,0.429,0.021c1.127,0,2.21-0.451,2.997-1.266l28.218-29.066C709.594,41.583,709.556,38.941,707.905,37.335
		z"/>
</g>
<g id="Layer_2" display="none">
	<g display="inline">
		<g>
			<line fill="none" stroke="#FFFFFF" stroke-width="5" stroke-miterlimit="10" x1="148.041" y1="673" x2="224.69" y2="673"/>
			<g>
				<polygon fill="#FFFFFF" points="220.618,642.629 220.618,703.371 250.982,673 				"/>
			</g>
		</g>
	</g>
	<g display="inline">
		<g>
			<line fill="none" stroke="#FFFFFF" stroke-width="5" stroke-miterlimit="10" x1="123.726" y1="673" x2="47.076" y2="673"/>
			<g>
				<polygon fill="#FFFFFF" points="51.148,703.371 51.148,642.629 20.785,673 				"/>
			</g>
		</g>
	</g>
	<g display="inline">
		<g>
			
				<line fill="none" stroke="#FFFFFF" stroke-width="5" stroke-miterlimit="10" x1="135.883" y1="660.843" x2="135.883" y2="584.193"/>
			<g>
				<polygon fill="#FFFFFF" points="105.512,588.265 166.254,588.265 135.883,557.901 				"/>
			</g>
		</g>
	</g>
	<g display="inline">
		<g>
			
				<line fill="none" stroke="#FFFFFF" stroke-width="5" stroke-miterlimit="10" x1="135.883" y1="688.157" x2="135.883" y2="764.807"/>
			<g>
				<polygon fill="#FFFFFF" points="166.254,760.735 105.512,760.735 135.883,791.099 				"/>
			</g>
		</g>
	</g>
</g>
</svg>
